#!OML:ASF F:\VICON\USERDATA\INSTALL\rory3\rory3.ASF
:FULLY-SPECIFIED
:DEGREES
1115
root 0.13515 17.6219 12.4114 0.629984 -17.6822 2.0105
lowerback 4.10145 2.50217 -0.847727
upperback 0.234848 3.32477 1.3985
thorax -2.18675 1.67291 1.71087
lowerneck -14.8299 -3.0877 -11.5425
upperneck 31.9835 -2.62196 4.28895
head 13.517 -2.0121 3.27983
rclavicle 9.93923e-017 -1.19271e-014
rhumerus -29.2328 -2.28872 -79.5887
rradius 36.312
rwrist 19.295
rhand -19.8454 3.90521
rfingers 7.12502
rthumb 6.4891 -25.9754
lclavicle 9.93923e-017 -1.19271e-014
lhumerus -39.6772 17.3564 79.2217
lradius 25.7333
lwrist -5.96211
lhand -6.53808 28.8584
lfingers 7.12502
lthumb 19.315 57.9191
rfemur -8.66643 9.04859 19.7579
rtibia 32.7074
rfoot -13.8615 14.221
rtoes 21.5636
lfemur -19.2372 -18.9802 -13.5141
ltibia 23.5016
lfoot -0.542125 -31.1947
ltoes -4.52085
1116
root 0.165107 17.6113 12.4597 0.633792 -18.693 2.06262
lowerback 4.12994 2.51398 -1.03181
upperback 0.13597 3.33391 1.4438
thorax -2.31806 1.6811 1.85551
lowerneck -14.7829 -3.13411 -11.574
upperneck 31.7985 -2.70507 4.32092
head 13.4363 -2.04591 3.27956
rclavicle 1.42628e-014 3.18055e-015
rhumerus -28.9493 -2.55414 -79.5519
rradius 36.1851
rwrist 19.2253
rhand -19.6614 3.4585
rfingers 7.12502
rthumb 6.66668 -26.4166
lclavicle 1.42628e-014 3.18055e-015
lhumerus -40.0635 17.6007 78.9976
lradius 25.3926
lwrist -6.41118
lhand -6.23461 29.1297
lfingers 7.12502
lthumb 19.6068 58.161
rfemur -8.85339 9.39475 19.4834
rtibia 33.0217
rfoot -13.7635 14.8862
rtoes 21.6036
lfemur -18.5287 -19.0608 -13.6016
ltibia 22.77
lfoot -1.06741 -31.0606
ltoes -3.49354
1117
root 0.195761 17.5988 12.5065 0.646152 -19.6775 2.1641
lowerback 4.11908 2.53159 -1.27017
upperback 0.0537991 3.34753 1.46378
thorax -2.41207 1.69209 2.00647
lowerneck -14.8418 -3.17399 -11.5502
upperneck 31.6288 -2.79398 4.39559
head 13.3846 -2.06928 3.28627
rclavicle -3.8763e-014 7.95139e-015
rhumerus -28.6527 -3.07242 -79.4839
rradius 36.1231
rwrist 19.3567
rhand -19.2728 2.27627
rfingers 7.12502
rthumb 7.04183 -27.5866
lclavicle -3.8763e-014 7.95139e-015
lhumerus -40.2612 17.8251 78.775
lradius 24.8216
lwrist -7.17211
lhand -6.01128 29.0758
lfingers 7.12502
lthumb 19.8215 58.0851
rfemur -9.03928 9.75429 19.1535
rtibia 33.2331
rfoot -13.3543 15.5097
rtoes 22.4271
lfemur -17.8872 -18.831 -13.8114
ltibia 22.3332
lfoot -2.41598 -30.6855
ltoes -3.90534
1118
root 0.225809 17.5889 12.556 0.731791 -20.7224 2.19459
lowerback 3.90864 2.54956 -1.35413
upperback 0.0594907 3.36826 1.42297
thorax -2.29162 1.7024 2.01999
lowerneck -14.9076 -3.23599 -11.6196
upperneck 31.3574 -2.95224 4.67678
head 13.3022 -2.10396 3.37833
rclavicle 3.52346e-014 -4.77083e-015
rhumerus -28.1773 -3.96073 -79.4797
rradius 35.9073
rwrist 19.9437
rhand -18.8617 0.891515
rfingers 7.12502
rthumb 7.4386 -28.9577
lclavicle 3.52346e-014 -4.77083e-015
lhumerus -40.3151 18.0586 78.4526
lradius 24.2191
lwrist -8.23482
lhand -5.91911 28.7036
lfingers 7.12502
lthumb 19.9101 57.7037
rfemur -9.2443 10.1736 18.8805
rtibia 33.3575
rfoot -12.9698 16.1692
rtoes 22.9386
lfemur -17.3441 -18.3374 -13.9989
ltibia 22.0704
lfoot -3.35408 -30.2077
ltoes -2.27893
1119
root 0.255052 17.5878 12.6042 0.833276 -21.61 2.10621
lowerback 3.87735 2.51449 -1.43205
upperback -0.00600016 3.32031 1.48988
thorax -2.34772 1.68084 2.13496
lowerneck -15.1063 -3.32901 -11.6351
upperneck 31.2745 -3.07543 4.71146
head 13.3236 -2.15364 3.37165
rclavicle -3.24019e-014 -2.06736e-014
rhumerus -27.8176 -4.70578 -79.3981
rradius 35.7401
rwrist 20.2666
rhand -18.6121 0.378551
rfingers 7.12502
rthumb 7.67958 -29.462
lclavicle -3.24019e-014 -2.06736e-014
lhumerus -40.4657 18.1744 78.2917
lradius 23.7759
lwrist -8.82111
lhand -5.8276 28.5387
lfingers 7.12502
lthumb 19.9981 57.5296
rfemur -9.33443 10.4933 18.7421
rtibia 33.3944
rfoot -12.8173 16.7419
rtoes 22.6909
lfemur -16.8534 -17.6186 -14.1503
ltibia 21.9025
lfoot -4.16582 -30.0422
ltoes -1.60512
1120
root 0.289764 17.5891 12.648 0.963927 -22.2695 1.96347
lowerback 3.89083 2.38389 -1.44752
upperback -0.0650135 3.14862 1.61432
thorax -2.41549 1.59723 2.28043
lowerneck -15.4075 -3.35564 -11.5839
upperneck 31.2677 -3.07121 4.63498
head 13.3832 -2.15514 3.33081
rclavicle 6.08778e-014 1.66979e-014
rhumerus -27.4392 -5.06047 -79.3393
rradius 35.6401
rwrist 20.0263
rhand -19.0499 1.10085
rfingers 7.12502
rthumb 7.25701 -28.7547
lclavicle 6.08778e-014 1.66979e-014
lhumerus -40.5261 18.2327 78.3037
lradius 23.3148
lwrist -9.05666
lhand -5.8554 28.5361
lfingers 7.12502
lthumb 19.9714 57.5299
rfemur -9.38823 10.6749 18.6523
rtibia 33.3691
rfoot -12.471 17.2043
rtoes 22.9888
lfemur -16.4837 -16.7423 -14.3236
ltibia 21.7338
lfoot -5.04332 -29.9961
ltoes -2.28082
1121
root 0.323959 17.5922 12.6891 1.12105 -22.896 1.91321
lowerback 3.84755 2.23801 -1.54018
upperback -0.127303 2.95279 1.70072
thorax -2.45452 1.50226 2.43414
lowerneck -15.4268 -3.35921 -11.6147
upperneck 31.0132 -3.09648 4.7253
head 13.2827 -2.15271 3.3613
rclavicle -4.59193e-014 7.95139e-016
rhumerus -27.0851 -5.55706 -79.3053
rradius 35.593
rwrist 19.917
rhand -19.7865 2.39696
rfingers 7.12502
rthumb 6.54597 -27.4819
lclavicle -4.59193e-014 7.95139e-016
lhumerus -40.6219 18.5861 78.1227
lradius 22.8686
lwrist -9.80401
lhand -5.5136 28.507
lfingers 7.12502
lthumb 20.2999 57.4661
rfemur -9.52306 10.8859 18.4542
rtibia 33.3197
rfoot -12.0225 17.6441
rtoes 23.9243
lfemur -16.2961 -15.8433 -14.5672
ltibia 21.5826
lfoot -5.59609 -29.6218
ltoes -3.0348
1122
root 0.353944 17.6001 12.7254 1.13359 -23.495 2.16499
lowerback 3.8964 2.08341 -1.92567
upperback -0.166928 2.72813 1.66735
thorax -2.52693 1.39622 2.62769
lowerneck -15.4835 -3.42692 -11.346
upperneck 30.6269 -3.18209 4.46593
head 13.13 -2.18308 3.1878
rclavicle -2.39039e-014 9.54166e-015
rhumerus -26.7049 -5.95421 -79.4389
rradius 35.657
rwrist 19.6073
rhand -20.1238 2.61697
rfingers 7.12502
rthumb 6.22027 -27.2717
lclavicle -2.39039e-014 9.54166e-015
lhumerus -40.7054 18.6562 78.0062
lradius 22.577
lwrist -10.2738
lhand -5.48466 28.2723
lfingers 7.12502
lthumb 20.3277 57.2285
rfemur -9.6567 11.1558 17.9929
rtibia 33.2849
rfoot -12.0436 17.9179
rtoes 23.893
lfemur -16.1683 -15.2753 -15.0487
ltibia 21.4851
lfoot -6.05092 -28.7456
ltoes -4.89462
1123
root 0.383022 17.6084 12.7613 1.11613 -24.0379 2.43987
lowerback 4.02159 1.9254 -2.25714
upperback -0.219132 2.49729 1.54767
thorax -2.6458 1.28678 2.70029
lowerneck -15.6105 -3.49744 -10.839
upperneck 30.256 -3.28016 4.03868
head 12.9916 -2.21365 2.90709
rclavicle -2.43511e-015 7.95139e-016
rhumerus -26.5204 -6.42836 -79.6945
rradius 35.8321
rwrist 19.1151
rhand -20.3424 2.1088
rfingers 7.12502
rthumb 6.00923 -27.786
lclavicle -2.43511e-015 7.95139e-016
lhumerus -40.7002 18.337 77.9564
lradius 22.2861
lwrist -10.4777
lhand -5.89343 27.8701
lfingers 7.12502
lthumb 19.9348 56.8676
rfemur -9.76108 11.3834 17.5295
rtibia 33.2504
rfoot -12.3305 18.0543
rtoes 22.6662
lfemur -16.0973 -14.9773 -15.4929
ltibia 21.4711
lfoot -6.25464 -27.7723
ltoes -6.28766
1124
root 0.410546 17.6157 12.7979 1.08025 -24.5115 2.65593
lowerback 4.18721 1.75742 -2.5632
upperback -0.268433 2.25283 1.45868
thorax -2.78219 1.17104 2.7912
lowerneck -15.928 -3.57329 -10.7615
upperneck 30.2275 -3.42585 4.18
head 13.0597 -2.24846 2.92307
rclavicle -5.36719e-014 -6.36111e-015
rhumerus -26.4235 -7.05748 -79.8594
rradius 35.9175
rwrist 18.7426
rhand -20.8202 2.36558
rfingers 7.12502
rthumb 5.54793 -27.5418
lclavicle -5.36719e-014 -6.36111e-015
lhumerus -40.5291 18.2713 77.75
lradius 21.761
lwrist -11.1771
lhand -5.85593 27.9154
lfingers 7.12502
lthumb 19.9708 56.9091
rfemur -9.8178 11.6393 17.1593
rtibia 33.2379
rfoot -12.6337 18.118
rtoes 21.1972
lfemur -16.0118 -14.7423 -15.8665
ltibia 21.4917
lfoot -6.09456 -27.2506
ltoes -6.06126
1125
root 0.438131 17.6226 12.8343 1.12152 -24.8807 2.87033
lowerback 4.222 1.6054 -2.84827
upperback -0.328583 2.03279 1.38178
thorax -2.85604 1.067 2.88571
lowerneck -16.4344 -3.77232 -11.5516
upperneck 30.6763 -3.83651 5.42069
head 13.4409 -2.36569 3.49335
rclavicle 5.36719e-015 -1.59028e-015
rhumerus -26.3361 -7.93699 -79.9087
rradius 35.9502
rwrist 18.5728
rhand -21.3449 2.47244
rfingers 7.12502
rthumb 5.04131 -27.4476
lclavicle 5.36719e-015 -1.59028e-015
lhumerus -40.2644 18.1441 77.6099
lradius 21.1759
lwrist -12.0319
lhand -6.02731 27.6227
lfingers 7.12502
lthumb 19.8061 56.6336
rfemur -9.94898 11.7413 16.7536
rtibia 33.2213
rfoot -12.5613 18.3244
rtoes 20.8542
lfemur -16.0724 -14.605 -16.2296
ltibia 21.5725
lfoot -5.85572 -27.1129
ltoes -4.7711
